<svg width="222" height="42" viewBox="0 0 222 42" fill="none" xmlns="http://www.w3.org/2000/svg">
<path d="M3.60308 38.5448C3.07001 38.5693 2.66951 38.4189 2.40158 38.0938C2.13494 37.7967 1.98941 37.3817 1.96499 36.8486C1.92773 36.035 2.08043 35.0721 2.4231 33.9599C2.79382 32.8464 3.23533 31.7438 3.74762 30.6519C4.25991 29.5601 4.69639 28.6545 5.05705 27.9351L4.51188 28.0022C4.31677 28.0393 4.03492 28.024 3.66634 27.9566C3.29775 27.8891 3.10703 27.7151 3.09418 27.4345C3.07747 27.0698 3.27376 26.7516 3.68304 26.4798C4.11909 26.1787 4.60043 25.9457 5.12708 25.781C5.65244 25.5883 6.04073 25.4721 6.29195 25.4325C6.49969 25.0575 6.83744 24.4516 7.30518 23.6148C7.7997 22.7487 8.35921 21.7672 8.98373 20.6702C9.6363 19.5719 10.3163 18.4583 11.0237 17.3294C11.7298 16.1725 12.4117 15.101 13.0694 14.115C13.7552 13.1276 14.3792 12.3259 14.9414 11.7097C15.5036 11.0936 15.939 10.7784 16.2476 10.7643C16.5562 10.7501 16.8579 10.8909 17.1526 11.1867C17.4753 11.4812 17.6578 11.7821 17.7 12.0894C16.1104 14.2147 14.5088 16.3826 12.895 18.5933C11.2812 20.8039 9.86772 23.0898 8.65446 25.4508C10.223 25.3227 11.8056 25.194 13.4023 25.0646C14.9989 24.9353 16.5828 24.8346 18.154 24.7626C19.7812 24.6881 21.3683 24.6576 22.9153 24.6711C23.0134 24.3573 23.2689 23.7973 23.6818 22.9912C24.1228 22.1838 24.6555 21.2316 25.28 20.1346C25.9313 19.0083 26.61 17.8666 27.3161 16.7097C28.0503 15.5515 28.7743 14.478 29.4881 13.4894C30.2007 12.4728 30.8521 11.6557 31.4423 11.0383C32.0313 10.3927 32.4941 10.0623 32.8308 10.0469C33.1955 10.0301 33.5265 10.1977 33.8238 10.5496C34.1491 10.9002 34.3195 11.2438 34.3349 11.5805C34.3439 11.7769 34.2547 11.9778 34.0673 12.1832C32.294 13.9794 30.6425 15.981 29.1129 18.1878C27.6114 20.3933 26.2221 22.5937 24.945 24.789C25.1427 24.808 25.4411 24.8787 25.8403 25.001C26.2663 25.0939 26.4857 25.2807 26.4986 25.5612C26.5037 25.6735 26.2997 25.8234 25.8866 26.011C25.5015 26.1973 25.0763 26.4277 24.6109 26.702C24.1442 26.9483 23.8076 27.273 23.6012 27.6761C23.4215 28.0498 23.1666 28.6238 22.8366 29.398C22.5066 30.1722 22.1657 31.0172 21.814 31.933C21.4892 32.8195 21.2184 33.6613 21.0019 34.4584C20.7841 35.2275 20.6842 35.8084 20.7022 36.2012C20.7073 36.3135 20.7265 36.425 20.7597 36.536C20.8222 36.6737 20.9237 36.7393 21.0639 36.7329C21.5689 36.7098 21.8259 36.7964 21.8349 36.9928C21.8452 37.2173 21.682 37.3372 21.3454 37.3526C20.7001 37.3822 20.2434 37.2344 19.9755 36.9093C19.7089 36.6122 19.5614 36.1551 19.5331 35.5378C19.4869 34.5278 19.6351 33.4667 19.9778 32.3545C20.3191 31.2143 20.7179 30.0995 21.1741 29.0103C21.6571 27.8916 22.0603 26.8751 22.3839 25.9606C22.2691 25.9096 22.1416 25.8873 22.0013 25.8938C21.8891 25.8989 21.7628 25.9047 21.6226 25.9111C19.9392 25.9882 18.2303 26.1227 16.496 26.3146C14.7897 26.5052 13.0987 26.7233 11.423 26.9687C10.5023 27.1233 9.7493 27.2562 9.16397 27.3674C8.60542 27.4492 8.1336 27.5833 7.74852 27.7696C7.3915 27.9546 7.05429 28.2653 6.73689 28.7016C6.44755 29.1365 6.08304 29.7718 5.64335 30.6073C5.46238 30.9529 5.23107 31.4274 4.94944 32.0307C4.66652 32.606 4.37215 33.238 4.06632 33.9268C3.78854 34.6143 3.55092 35.2578 3.35346 35.8572C3.18405 36.4554 3.10834 36.9509 3.12633 37.3437C3.13147 37.4559 3.15064 37.5675 3.18384 37.6784C3.24509 37.7881 3.34586 37.8397 3.48614 37.8333C3.7667 37.8204 4.05487 37.6666 4.35064 37.3719C4.64769 37.1053 4.8383 36.97 4.92247 36.9662C4.97858 36.9636 5.00792 36.9904 5.01049 37.0465C5.02591 37.3832 4.88638 37.7129 4.5919 38.0356C4.29742 38.3584 3.96781 38.5281 3.60308 38.5448ZM37.1383 19.5914C36.493 19.621 36.1594 19.3973 36.1376 18.9203C36.1222 18.5837 36.2878 18.2106 36.6346 17.8011C36.9813 17.3916 37.5015 17.0866 38.1952 16.8862C38.6109 16.7547 38.945 16.6831 39.1975 16.6716C39.4768 16.6306 39.7408 16.5623 39.9894 16.4666C39.9016 17.0048 39.6895 17.5909 39.353 18.2248C39.0446 18.8575 38.6131 19.2568 38.0584 19.4228C37.7817 19.5198 37.475 19.576 37.1383 19.5914ZM31.172 36.6495C30.7231 36.67 30.2939 36.5069 29.8844 36.1602C29.503 35.8122 29.2605 35.4297 29.1571 35.0127C29.2168 34.4758 29.3696 33.8221 29.6155 33.0517C29.8881 32.252 30.2016 31.4223 30.5558 30.5626C30.9101 29.703 31.2669 28.8994 31.6262 28.1519C31.9843 27.3764 32.2934 26.7578 32.5534 26.2961C32.0421 26.7974 31.4914 27.3568 30.9012 27.9743C30.339 28.5905 29.8029 29.1633 29.293 29.6927C29.2662 29.722 29.1986 29.7814 29.0903 29.8707C29.0099 29.9587 28.9277 30.0046 28.8435 30.0085C28.6471 30.0175 28.5451 29.9378 28.5374 29.7695C28.5309 29.6292 28.5813 29.5004 28.6884 29.383C29.4073 28.5066 30.1543 27.6289 30.9294 26.75C31.7326 25.8698 32.5064 24.9627 33.2508 24.029C33.4892 23.7088 33.6887 23.4607 33.8493 23.2846C34.0367 23.0792 34.3268 22.9675 34.7196 22.9495C34.8879 22.9418 35.1424 22.9723 35.4829 23.0411C35.8502 23.0805 36.1499 23.1792 36.3821 23.3373C36.6423 23.4941 36.694 23.7025 36.5373 23.9628C36.355 24.2804 36.0414 24.8008 35.5966 25.5241C35.1518 26.2473 34.6413 27.072 34.0652 27.9981C33.5171 28.9228 32.9697 29.8617 32.423 30.8145C31.903 31.738 31.4773 32.5728 31.146 33.319C30.8147 34.0652 30.6573 34.6206 30.6741 34.9854C30.6818 35.1537 30.7417 35.2353 30.854 35.2302C31.0223 35.2225 31.2958 35.0553 31.6744 34.7287C32.0811 34.4008 32.4732 34.0595 32.8506 33.7048C33.2547 33.3208 33.5243 33.0695 33.6595 32.9509C34.441 32.2122 35.2078 31.4601 35.96 30.6947C36.7109 29.9012 37.4184 29.0815 38.0825 28.2358C38.136 28.1771 38.2023 28.0897 38.2814 27.9736C38.3884 27.8563 38.4981 27.795 38.6103 27.7899C38.7506 27.7834 38.8246 27.8644 38.8323 28.0327C38.8413 28.2291 38.7802 28.4287 38.6489 28.6316C38.3047 29.0972 37.9184 29.5647 37.4901 30.0342C37.0605 30.4756 36.6589 30.9157 36.2854 31.3545C35.5894 32.1174 34.9073 32.8796 34.2393 33.6412C33.5981 34.3735 32.9582 35.1338 32.3195 35.9221C32.187 36.0969 32.0117 36.2596 31.7936 36.4101C31.6037 36.5594 31.3965 36.6392 31.172 36.6495ZM37.5791 40.2781C37.4975 40.338 37.3859 40.3572 37.2444 40.3356C37.1309 40.3126 37.0594 40.2878 37.0301 40.261C36.9421 40.1807 36.9866 39.9256 37.1637 39.4958C37.3408 39.066 37.5842 38.5487 37.8939 37.9441C38.233 37.3663 38.5707 36.7604 38.9072 36.1265C39.273 35.5193 39.5859 34.9848 39.8459 34.5231C40.1046 34.0333 40.2722 33.7023 40.3486 33.5301C40.4531 33.3566 40.5443 33.1978 40.622 33.0537C40.7265 32.8802 40.8617 32.7615 41.0274 32.6977C41.0823 32.6671 41.1658 32.6492 41.278 32.6441C41.5025 32.6338 41.7435 32.679 42.0012 32.7796C42.2588 32.8803 42.4042 32.9861 42.4374 33.097C42.4974 33.1786 42.5446 33.2889 42.5791 33.4279C42.6404 33.5376 42.6742 33.6625 42.6806 33.8028C42.696 34.1395 42.5431 34.4839 42.2219 34.836C42.1148 34.9533 41.8343 35.2755 41.3805 35.8023C40.928 36.3572 40.4219 36.9708 39.8623 37.6431C39.3307 38.3141 38.8374 38.899 38.3822 39.3978C37.9565 39.9234 37.6888 40.2168 37.5791 40.2781ZM53.945 34.9316C53.4961 34.9522 53.2614 34.738 53.2408 34.2891C53.219 33.8121 53.4828 33.4346 54.0324 33.1563C54.6087 32.8488 55.3005 32.6062 56.1077 32.4287C56.9429 32.2499 57.738 32.115 58.493 32.0242C59.2479 31.9334 59.8071 31.8656 60.1706 31.8209C60.4036 30.7699 60.7806 29.4875 61.3017 27.9735C61.8508 26.4583 62.4943 24.8543 63.2321 23.1618C63.998 21.4679 64.7932 19.8008 65.6178 18.1604C66.4704 16.5188 67.3307 15.0456 68.1987 13.7406C69.0654 12.4076 69.8762 11.3865 70.6309 10.6771C69.9563 10.6799 69.274 10.8236 68.5842 11.1082C67.8931 11.3648 67.2306 11.6341 66.5969 11.9162C65.99 12.1689 65.448 12.3062 64.971 12.3281C64.7185 12.3396 64.4883 12.2237 64.2803 11.9801C64.1004 11.7354 64.006 11.5148 63.997 11.3184C63.9803 10.9536 64.2059 10.6621 64.6739 10.4439C65.1406 10.1976 65.722 10.0023 66.4183 9.85793C67.1426 9.71229 67.8823 9.59407 68.6372 9.50326C69.3909 9.38439 70.061 9.28341 70.6476 9.20031C71.261 9.08787 71.6773 8.97039 71.8967 8.84789C72.0892 8.75472 72.29 8.53466 72.499 8.18771C72.7068 7.81269 72.9088 7.62069 73.1052 7.61169C73.4138 7.59756 73.7569 7.72242 74.1345 7.98627C74.5121 8.25013 74.8042 8.48978 75.0109 8.70524C75.9929 8.66026 77.0035 8.62803 78.0429 8.60853C79.0823 8.58904 80.1089 8.59825 81.1228 8.63615C81.2069 8.6323 81.3205 8.65521 81.4633 8.7049C81.6329 8.72525 81.735 8.80492 81.7695 8.94391C81.642 9.2309 81.2162 9.44721 80.4918 9.59285C79.7943 9.70915 78.9431 9.84654 77.9382 10.005C76.9614 10.1622 75.9616 10.4329 74.9389 10.8172C73.9431 11.1721 73.0824 11.7175 72.357 12.4537C71.5781 13.2484 70.752 14.2422 69.8789 15.4349C69.0338 16.6263 68.1798 17.9306 67.3169 19.3478C66.482 20.7637 65.6772 22.2204 64.9023 23.7178C64.1542 25.186 63.4884 26.6082 62.9048 27.9844C62.3199 29.3326 61.8829 30.5335 61.5937 31.587C62.8295 31.5585 64.05 31.5026 65.2551 31.4193C66.4589 31.3079 67.6641 31.2246 68.8705 31.1693C68.9266 31.1668 69.1236 31.1718 69.4616 31.1844C69.8276 31.1958 70.0145 31.2856 70.0222 31.454C70.058 31.621 69.9662 31.7658 69.7469 31.8883C69.5263 31.9828 69.277 32.0645 68.999 32.1334C68.7478 32.1731 68.5667 32.2095 68.4558 32.2427C66.108 32.547 63.7348 32.9087 61.3361 33.3279C58.9642 33.7177 56.6401 34.2318 54.3639 34.8702C54.3078 34.8728 54.2377 34.876 54.1535 34.8799C54.0987 34.9105 54.0292 34.9277 53.945 34.9316ZM79.791 15.9509C79.7617 15.9241 79.7444 15.8546 79.7393 15.7424C79.7329 15.6021 79.8763 15.3565 80.1694 15.0057C80.4907 14.6536 80.8521 14.2575 81.2537 13.8174C81.6552 13.3773 82.0007 12.9397 82.29 12.5047C82.6062 12.0404 82.7705 11.6393 82.7832 11.3013L82.7793 11.2172C82.7742 11.1049 82.7416 11.008 82.6817 10.9264C82.6217 10.8448 82.5885 10.7339 82.5821 10.5936C82.5692 10.313 82.6673 9.99928 82.8763 9.65232C83.0854 9.30537 83.339 9.0126 83.6374 8.77401C83.9344 8.50737 84.1812 8.36955 84.3776 8.36055C84.7142 8.34513 84.8954 8.61798 84.9211 9.17911C84.9237 9.23522 84.9269 9.30536 84.9308 9.38953C84.9346 9.4737 84.9251 9.57254 84.9022 9.68605C84.7214 10.6502 84.3002 11.5833 83.6387 12.4851C83.0039 13.3577 82.3212 14.1059 81.5907 14.7298C80.8601 15.3536 80.2603 15.7607 79.791 15.9509ZM98.9622 33.1648C98.6536 33.179 98.283 33.0694 97.8506 32.8362C97.4195 32.631 97.0279 32.3678 96.6758 32.0465C96.3505 31.696 96.1795 31.3383 96.1628 30.9736C96.1409 30.4966 96.3097 29.8844 96.669 29.1369C97.0284 28.3895 97.4707 27.6101 97.9958 26.7988C98.549 25.9863 99.0767 25.2311 99.579 24.5333C100.108 23.8062 100.531 23.2245 100.849 22.7883C101.218 22.2653 101.388 21.9764 101.357 21.9215C101.325 21.8387 101.307 21.7551 101.303 21.671C100.536 22.0997 99.6791 22.7294 98.7331 23.5599C97.7858 24.3624 96.8826 25.2051 96.0233 26.0879C95.1641 26.9707 94.4693 27.7617 93.939 28.4607C93.5668 28.9276 93.2099 29.4219 92.8683 29.9436C92.5535 30.436 92.2393 30.9424 91.9257 31.4628C91.7422 31.7524 91.5032 32.0586 91.2087 32.3813C90.9423 32.7028 90.6267 32.8719 90.2619 32.8886C90.0656 32.8976 89.88 32.8358 89.7052 32.7032C89.5585 32.5694 89.4807 32.4042 89.4717 32.2078C89.4537 31.815 89.6792 31.2143 90.1482 30.4056C90.644 29.5675 91.1506 28.6587 91.6681 27.6791C92.0045 27.0452 92.3684 26.3959 92.7597 25.7313C93.1777 25.0374 93.5289 24.4169 93.8131 23.8696C94.1253 23.3212 94.277 22.9487 94.268 22.7523L94.2259 22.7542C94.1417 22.7581 93.9485 22.8372 93.6463 22.9917C93.3722 23.1448 93.2217 23.236 93.195 23.2654C91.8626 24.2542 90.5967 25.4649 89.3971 26.8975C88.2256 28.3288 87.1491 29.6855 86.1675 30.9675C85.9827 31.229 85.7845 31.5052 85.5729 31.796C85.36 32.0588 85.1471 32.3216 84.9343 32.5844C84.8272 32.7017 84.6774 32.807 84.4848 32.9002C84.291 32.9653 84.1099 33.0017 83.9416 33.0094C83.7732 33.0171 83.5322 32.9719 83.2184 32.8738C82.9327 32.7744 82.7834 32.5845 82.7706 32.3039C82.7552 31.9672 82.887 31.4692 83.1661 30.8098C83.4451 30.1503 83.7905 29.4035 84.2021 28.5693C84.6418 27.7338 85.0961 26.9117 85.5652 26.103C86.061 25.265 86.5045 24.5137 86.8958 23.8491C87.3139 23.1552 87.614 22.6494 87.7963 22.3318C86.9612 23.1292 86.2078 23.8666 85.5359 24.544C84.8909 25.1921 84.1579 26.0691 83.337 27.1751C83.2834 27.2338 83.1763 27.3511 83.0157 27.5272C82.8551 27.7032 82.6912 27.8091 82.5242 27.8449C82.4681 27.8475 82.396 27.8086 82.308 27.7283C82.248 27.6467 82.2308 27.5772 82.2563 27.5198C82.2779 27.3782 82.4614 27.0887 82.8069 26.6511C83.1511 26.1855 83.5768 25.6599 84.0842 25.0744C84.5916 24.4888 85.0989 23.9033 85.6063 23.3178C86.1137 22.7322 86.5541 22.22 86.9276 21.7812C87.3292 21.3411 87.5695 21.063 87.6485 20.9469C88.2362 20.2733 88.7595 19.7292 89.2185 19.3146C89.7055 18.8987 90.1735 18.6804 90.6224 18.6599C90.8749 18.6483 91.1746 18.747 91.5215 18.9561C91.8685 19.1651 92.0491 19.4239 92.0632 19.7325C92.0683 19.8448 92.0435 19.9162 91.9887 19.9468C90.7737 21.0427 89.706 22.2865 88.7858 23.6782C87.8642 25.0418 86.9987 26.4029 86.1894 27.7614C86.1626 27.7907 86.0715 27.9495 85.916 28.2378C85.7886 28.5248 85.6344 28.8411 85.4534 29.1868C85.2724 29.5324 85.1176 29.8347 84.9889 30.0937C84.8601 30.3526 84.8092 30.4674 84.8359 30.4381C86.2587 28.9671 87.7477 27.4088 89.303 25.7631C90.885 24.0881 92.4181 22.57 93.9021 21.2087C94.1175 21.002 94.3623 20.8221 94.6364 20.669C94.9106 20.5158 95.202 20.4322 95.5106 20.4181C95.8473 20.4027 96.1189 20.5027 96.3256 20.7181C96.559 20.9042 96.6835 21.1656 96.6989 21.5023C96.7156 21.867 96.6201 22.2369 96.4123 22.6119C96.2046 22.9869 96.0096 23.3333 95.8273 23.6509C95.5699 24.1687 95.2844 24.6879 94.9709 25.2083C94.6854 25.7275 94.4796 26.1446 94.3534 26.4596C95.5913 25.2502 96.775 24.0854 97.9046 22.9653C99.0328 21.8171 100.182 20.8226 101.353 19.9818C101.624 19.7726 101.956 19.6589 102.349 19.6409C102.602 19.6294 102.926 19.6567 103.323 19.7229C103.748 19.7878 104.118 19.8973 104.434 20.0515C104.779 20.2044 104.958 20.4352 104.972 20.7438C104.98 20.9121 104.931 21.0831 104.827 21.2565C104.721 21.402 104.601 21.534 104.466 21.6526L102.565 23.4266C102.215 23.78 101.788 24.2775 101.284 24.9192C100.806 25.5315 100.331 26.2139 99.8591 26.9665C99.4143 27.6898 99.0409 28.4379 98.7389 29.2108C98.465 29.9825 98.3428 30.691 98.3723 31.3362C98.3903 31.729 98.4975 31.9209 98.6939 31.9119C98.8062 31.9068 98.9311 31.873 99.0688 31.8104C99.2053 31.7198 99.3557 31.6286 99.5202 31.5367C100.094 31.173 100.703 30.6531 101.347 29.977C101.99 29.3009 102.618 28.5833 103.23 27.8243C103.87 27.064 104.43 26.3917 104.909 25.8074C105.388 25.2232 105.751 24.8551 105.997 24.7033C106.051 24.6446 106.12 24.6273 106.205 24.6515C106.319 24.6745 106.378 24.728 106.382 24.8122C106.387 24.9244 106.336 25.0532 106.231 25.1986C106.125 25.3441 106.046 25.4601 105.993 25.5469C105.542 26.1299 105.118 26.6975 104.722 27.2499C104.352 27.7729 103.928 28.3265 103.448 28.9108C102.89 29.6111 102.264 30.3567 101.569 31.1477C100.901 31.9093 100.184 32.5325 99.4193 33.0174C99.311 33.1067 99.1586 33.1558 98.9622 33.1648ZM123.518 32.4618C122.172 32.5235 120.913 32.3562 119.742 31.96C118.572 31.5918 117.602 30.9615 116.83 30.0691C116.058 29.1766 115.568 28.0042 115.361 26.5517C115.191 25.2943 115.325 23.9246 115.764 22.4425C116.228 20.9311 116.918 19.4094 117.832 17.8775C118.774 16.3442 119.859 14.8747 121.088 13.4689C122.317 12.063 123.622 10.7943 125.004 9.66262C126.414 8.52966 127.821 7.62179 129.223 6.93901C130.626 6.25623 131.959 5.88593 133.221 5.8281C134.231 5.78183 135.144 6.06336 135.959 6.67267C136.774 7.28198 137.207 8.13373 137.257 9.22793C137.297 10.0977 137.049 10.84 136.515 11.4549C135.98 12.0417 135.277 12.355 134.408 12.3949C134.379 12.3962 134.239 12.3886 133.985 12.3721C133.731 12.3556 133.586 12.2638 133.55 12.0967C133.675 11.7536 133.914 11.4475 134.267 11.1783C134.649 10.9078 134.984 10.555 135.273 10.1201C135.561 9.65702 135.643 8.99256 135.519 8.12667C135.468 7.62294 135.242 7.28188 134.84 7.10348C134.465 6.89573 134.039 6.80278 133.562 6.82463C132.384 6.8786 131.151 7.27247 129.863 8.00622C128.574 8.71191 127.31 9.66947 126.072 10.8789C124.861 12.059 123.713 13.3768 122.626 14.8323C121.568 16.2865 120.639 17.791 119.839 19.3459C119.067 20.8995 118.489 22.416 118.107 23.8955C117.724 25.347 117.615 26.6453 117.78 27.7904C117.978 29.0465 118.582 29.9607 119.592 30.533C120.631 31.1039 121.725 31.3631 122.875 31.3104C124.194 31.25 125.559 30.9766 126.971 30.4902C128.381 29.9758 129.758 29.3504 131.102 28.6141C132.474 27.8765 133.746 27.1153 134.919 26.3306C136.092 25.5459 137.1 24.825 137.941 24.1679C138.811 23.5095 139.435 23.017 139.813 22.6904C139.84 22.6611 139.867 22.6458 139.896 22.6445C139.952 22.6419 139.983 22.7108 139.989 22.8511C139.994 22.9633 139.972 23.0908 139.923 23.2337C139.901 23.3752 139.823 23.5194 139.689 23.6661C138.834 24.6331 137.769 25.6237 136.494 26.638C135.246 27.623 133.882 28.543 132.403 29.3979C130.924 30.2529 129.41 30.9549 127.86 31.5038C126.34 32.0795 124.893 32.3988 123.518 32.4618ZM141.122 30.3481C139.438 30.4252 138.559 29.6361 138.483 27.9808C138.453 27.3355 138.588 26.5843 138.886 25.7272C139.211 24.8407 139.648 23.9491 140.197 23.0524C140.747 22.1557 141.369 21.3259 142.065 20.563C142.76 19.7721 143.476 19.1348 144.213 18.6512C144.977 18.1383 145.695 17.8664 146.369 17.8355C146.593 17.8252 146.75 17.8743 146.839 17.9827C146.955 18.0617 147.047 18.2121 147.113 18.434C147.174 18.5437 147.222 18.668 147.256 18.807C147.291 18.946 147.339 19.0844 147.402 19.2221C147.523 19.4133 147.63 19.6052 147.724 19.7978C147.817 19.9903 147.868 20.1988 147.879 20.4232C147.892 20.7038 147.833 20.9595 147.703 21.1904C147.572 21.3932 147.412 21.5833 147.223 21.7606C146.954 22.026 146.548 22.3679 146.005 22.7864C145.46 23.1768 144.861 23.5839 144.205 24.0075C143.577 24.4018 142.96 24.7533 142.356 25.0622C141.779 25.3697 141.31 25.5599 140.948 25.6327C140.714 26.0371 140.469 26.5403 140.216 27.1423C139.989 27.715 139.887 28.2398 139.908 28.7168C139.92 28.9693 139.986 29.1912 140.108 29.3824C140.257 29.5724 140.472 29.6609 140.752 29.6481C141.201 29.6275 141.781 29.3901 142.491 28.9359C143.228 28.4523 143.989 27.8832 144.775 27.2287C145.559 26.5461 146.274 25.8949 146.92 25.2748C147.593 24.6255 148.09 24.1247 148.412 23.7726L149.693 22.2801C149.854 22.104 150.032 22.0115 150.228 22.0025C150.397 21.9948 150.484 22.0611 150.491 22.2014C150.498 22.3697 150.276 22.7313 149.823 23.2863C149.37 23.8131 148.821 24.4146 148.177 25.0907C147.56 25.7375 146.983 26.3403 146.446 26.8991C145.908 27.4298 145.558 27.7692 145.396 27.9172C144.83 28.4492 144.18 28.985 143.446 29.5247C142.71 30.0364 141.935 30.3108 141.122 30.3481ZM141.613 24.5058C141.886 24.3246 142.295 24.0388 142.839 23.6483C143.412 23.2566 143.996 22.8222 144.593 22.345C145.19 21.8678 145.688 21.3951 146.088 20.927C146.517 20.4575 146.723 20.0544 146.708 19.7178C146.704 19.6336 146.687 19.5641 146.656 19.5093C146.627 19.4825 146.57 19.471 146.486 19.4749C146.121 19.4916 145.695 19.7079 145.208 20.1238C144.721 20.5398 144.238 21.0398 143.759 21.6241C143.278 22.1803 142.84 22.7346 142.443 23.2869C142.073 23.8099 141.797 24.2162 141.613 24.5058ZM151.207 30.6874C150.73 30.7093 150.147 30.5533 149.457 30.2194C148.767 29.8855 148.286 29.5139 148.014 29.1046C147.833 28.8318 147.733 28.499 147.715 28.1062C147.674 27.2084 147.942 26.0012 148.519 24.4847C149.123 22.9388 149.89 21.273 150.821 19.4872C151.234 18.6811 151.767 17.7429 152.421 16.6727C153.103 15.6012 153.867 14.4978 154.715 13.3625C155.562 12.1991 156.453 11.0899 157.388 10.0349C158.352 8.97861 159.308 8.04921 160.255 7.24672C161.23 6.44293 162.16 5.86617 163.043 5.51643C163.402 5.35944 163.721 5.27452 164.002 5.26167C164.535 5.23725 164.908 5.40291 165.121 5.75865C165.361 6.08504 165.668 6.35211 166.043 6.55986C166.274 6.68986 166.397 6.90917 166.411 7.21778C166.44 7.86308 166.125 8.65069 165.465 9.58062C164.804 10.5105 163.936 11.5062 162.86 12.5677C161.784 13.6291 160.624 14.6944 159.38 15.7635C158.134 16.8046 156.927 17.7736 155.76 18.6706C154.62 19.5662 153.642 20.3139 152.826 20.9136C152.01 21.5132 151.493 21.8884 151.275 22.0389C150.89 22.8438 150.538 23.7596 150.22 24.7863C149.901 25.813 149.763 26.7753 149.804 27.6731C149.819 28.0098 149.879 28.3866 149.982 28.8036C150.112 29.1913 150.402 29.3748 150.851 29.3542C151.272 29.335 151.756 29.1582 152.303 28.8238C152.85 28.4895 153.381 28.1278 153.898 27.7386C154.413 27.3214 154.819 26.9795 155.116 26.7129C155.818 26.0903 156.436 25.4575 156.969 24.8146C157.502 24.1716 158.129 23.44 158.85 22.6197C158.904 22.5611 158.958 22.5164 159.013 22.4858C159.066 22.4271 159.135 22.3958 159.22 22.392C159.388 22.3843 159.477 22.4786 159.485 22.675C159.493 22.8433 159.43 23.0009 159.296 23.1476C158.231 24.4334 157.111 25.764 155.937 27.1392C154.791 28.5131 153.491 29.6128 152.039 30.4385C151.765 30.5916 151.488 30.6746 151.207 30.6874ZM152.521 19.7889C152.936 19.6293 153.51 19.2656 154.243 18.6979C154.974 18.102 155.786 17.4042 156.677 16.6042C157.596 15.803 158.514 14.9597 159.429 14.0744C160.371 13.1596 161.231 12.2908 162.009 11.468C162.813 10.6158 163.469 9.89695 163.976 9.31141C164.51 8.69653 164.814 8.27493 164.888 8.04663C164.937 7.87572 164.96 7.76221 164.957 7.7061C164.947 7.48165 164.828 7.33248 164.599 7.25859C164.399 7.18342 164.173 7.15161 163.92 7.16318C163.78 7.1696 163.64 7.19006 163.501 7.22454C163.362 7.25902 163.237 7.29286 163.126 7.32606C162.657 7.51624 162.045 7.966 161.29 8.67533C160.534 9.35661 159.729 10.1948 158.875 11.1898C158.02 12.1568 157.167 13.1799 156.317 14.2591C155.494 15.337 154.74 16.3696 154.055 17.357C153.396 18.3149 152.885 19.1256 152.521 19.7889ZM173.212 31.0291C172.875 31.0445 172.52 30.9764 172.148 30.8248C171.805 30.6999 171.459 30.5189 171.111 30.2818C170.732 29.9899 170.361 29.5711 169.999 29.0254C169.637 28.4797 169.329 27.9034 169.076 27.2964L168.833 26.5906C167.751 27.5118 166.537 28.3265 165.192 29.0347C163.873 29.7137 162.429 30.0891 160.857 30.1611C159.847 30.2073 159.061 29.92 158.498 29.2992C157.963 28.6489 157.676 27.917 157.639 27.1034C157.609 26.4581 157.743 25.7069 158.042 24.8498C158.366 23.9633 158.804 23.0717 159.353 22.175C159.902 21.2783 160.525 20.4485 161.221 19.6856C161.916 18.8947 162.632 18.2574 163.369 17.7738C164.132 17.2608 164.851 16.989 165.524 16.9581C165.749 16.9478 165.906 16.9969 165.995 17.1052C166.111 17.1843 166.202 17.3347 166.269 17.5566C166.33 17.6663 166.378 17.7906 166.412 17.9296C166.447 18.0686 166.495 18.2069 166.558 18.3447C166.679 18.5359 166.786 18.7278 166.879 18.9203C166.972 19.1129 167.024 19.3214 167.034 19.5458C167.047 19.8264 166.989 20.0821 166.859 20.313C166.727 20.5158 166.567 20.7059 166.379 20.8832C166.11 21.1486 165.704 21.4905 165.161 21.909C164.616 22.2994 164.016 22.7064 163.361 23.1301C162.732 23.5244 162.116 23.8759 161.511 24.1848C160.935 24.4923 160.466 24.6825 160.104 24.7553C159.997 24.8727 159.845 25.2451 159.649 25.8726C159.453 26.5002 159.369 27.1225 159.397 27.7398C159.417 28.1887 159.548 28.5763 159.788 28.9027C160.027 29.2291 160.456 29.3782 161.073 29.3499C162.42 29.2882 163.711 28.9339 164.947 28.2869C166.182 27.6398 167.421 26.7677 168.664 25.6705L168.661 25.5864C168.458 25.4551 168.184 25.299 167.838 25.118C167.519 24.9077 167.348 24.55 167.325 24.045C167.298 23.4558 167.454 22.8723 167.793 22.2945C168.132 21.7166 168.428 21.4219 168.68 21.4104C168.877 21.4014 168.983 21.5652 168.998 21.9019C169.003 22.0141 169.016 22.2947 169.036 22.7436C169.084 23.1631 169.118 23.5974 169.138 24.0463C169.187 24.4939 169.231 24.8433 169.271 25.0945C169.865 24.5612 170.443 23.9865 171.005 23.3704C171.595 22.7529 172.199 22.1208 172.816 21.474L175.464 18.5271C175.591 18.2121 175.719 17.9391 175.849 17.7082C176.262 16.9021 176.78 16.2598 177.405 15.7813C178.057 15.2735 178.761 15.0023 179.519 14.9676C180.08 14.9419 180.477 15.0221 180.711 15.2082C180.944 15.3943 181.067 15.6136 181.078 15.8661C181.09 16.1186 180.988 16.3623 180.774 16.597C180.587 16.8024 180.297 16.9141 179.904 16.9321C179.285 16.9323 178.711 16.9726 178.18 17.0532C177.678 17.1324 177.322 17.3455 177.113 17.6925C176.905 18.0675 176.709 18.695 176.525 19.575C176.367 20.4257 176.214 21.3886 176.067 22.4638C175.947 23.5376 175.826 24.5834 175.704 25.6011C176.288 25.4619 176.843 25.2959 177.368 25.1032C177.92 24.8811 178.509 24.5308 179.134 24.0524C179.758 23.5739 180.472 22.8805 181.273 21.9722C181.406 21.7975 181.542 21.7069 181.683 21.7004C181.767 21.6966 181.812 21.7508 181.817 21.863C181.819 21.9191 181.796 22.0186 181.746 22.1614C181.696 22.3043 181.592 22.4918 181.434 22.724C181.118 23.1883 180.718 23.6565 180.234 24.1285C179.776 24.5712 179.37 24.9131 179.015 25.1543C178.278 25.6379 177.576 25.9512 176.908 26.0943C176.238 26.2093 175.806 26.2853 175.611 26.3224C175.525 26.9167 175.45 27.4122 175.384 27.8088C175.316 28.1774 175.272 28.4465 175.252 28.6161C175.149 29.4362 174.895 30.0382 174.491 30.4222C174.115 30.8049 173.689 31.0072 173.212 31.0291ZM160.769 23.6283C161.042 23.4472 161.45 23.1613 161.995 22.7709C162.567 22.3792 163.152 21.9448 163.749 21.4676C164.345 20.9904 164.844 20.5177 165.244 20.0496C165.672 19.5801 165.879 19.177 165.863 18.8403C165.856 18.672 165.782 18.5911 165.641 18.5975C165.277 18.6142 164.851 18.8305 164.364 19.2464C163.877 19.6623 163.394 20.1624 162.914 20.7467C162.434 21.3029 161.995 21.8572 161.599 22.4095C161.229 22.9325 160.953 23.3388 160.769 23.6283ZM173.937 25.6821C173.981 25.427 174.063 24.7626 174.183 23.6887C174.329 22.5855 174.571 21.4217 174.908 20.1973L173.382 21.8698C172.954 22.3392 172.473 22.8814 171.939 23.4963C171.405 24.1112 170.788 24.758 170.088 25.4367C170.968 25.6213 171.704 25.7281 172.295 25.7573C172.914 25.7571 173.461 25.732 173.937 25.6821ZM172.488 29.0379C172.712 29.0277 172.93 28.8631 173.14 28.5442C173.377 28.1959 173.587 27.5678 173.771 26.6597C173.767 26.5755 173.778 26.5188 173.805 26.4894C173.13 26.4922 172.469 26.4803 171.821 26.4538C171.2 26.3979 170.604 26.2846 170.034 26.1139C169.918 26.0348 169.818 25.9973 169.734 26.0011C169.65 26.005 169.61 26.049 169.613 26.1332C169.615 26.1612 169.617 26.2173 169.621 26.3015C169.652 26.3563 169.683 26.4252 169.715 26.5081C169.96 26.9467 170.248 27.3974 170.578 27.8602C170.907 28.295 171.273 28.6016 171.675 28.78C171.819 28.8577 171.962 28.9214 172.105 28.9711C172.248 29.0208 172.376 29.0431 172.488 29.0379ZM183.914 29.8641C183.409 29.8872 182.966 29.7388 182.586 29.4188C182.234 29.0976 181.949 28.703 181.731 28.235C181.539 27.7377 181.433 27.2646 181.413 26.8157C181.392 26.3668 181.428 25.9294 181.521 25.5034C181.613 25.0493 181.747 24.6074 181.924 24.1776C182.252 23.3472 182.646 22.4295 183.106 21.4244C183.592 20.39 184.107 19.3402 184.648 18.2751C185.217 17.1807 185.79 16.1845 186.367 15.2865C185.899 15.5047 185.348 15.7549 184.714 16.0369C184.107 16.2897 183.706 16.4205 183.509 16.4295C183.396 16.4066 183.308 16.3263 183.245 16.1886C183.211 16.0496 183.19 15.9099 183.184 15.7697C183.157 15.1805 183.42 14.7748 183.972 14.5528C184.829 14.2324 185.981 13.9265 187.43 13.6352C188.432 12.1836 189.518 10.7281 190.688 9.26873C191.886 7.80809 193.112 6.64139 194.366 5.76864C194.61 5.58874 194.895 5.66006 195.219 5.9826C195.542 6.27708 195.725 6.59202 195.768 6.92741C195.782 7.23603 195.68 7.45159 195.46 7.5741C194.37 8.32691 193.369 9.17406 192.456 10.1156C191.542 11.029 190.606 12.07 189.647 13.2385C190.204 13.1286 190.693 13.05 191.112 13.0027C191.532 12.9553 191.798 12.9291 191.91 12.924C191.994 12.9201 192.134 12.9137 192.331 12.9047C192.526 12.8676 192.736 12.844 192.96 12.8337C193.297 12.8183 193.607 12.8322 193.89 12.8755C194.201 12.9174 194.36 13.0086 194.366 13.1488C194.371 13.2611 194.25 13.365 194.001 13.4608C193.779 13.5272 193.528 13.5808 193.249 13.6217C192.969 13.6346 192.759 13.6582 192.62 13.6927C191.783 13.8435 191.031 13.9904 190.363 14.1335C189.723 14.2753 189.126 14.4432 188.572 14.6372C187.963 15.4524 187.488 16.1348 187.148 16.6846C186.836 17.2331 186.564 17.7376 186.332 18.198C186.126 18.6292 185.868 19.119 185.555 19.6675C184.89 21.1037 184.325 22.5635 183.858 24.0468C183.42 25.5289 183.222 26.7188 183.263 27.6166C183.269 27.7569 183.288 27.8685 183.32 27.9513C183.352 28.0342 183.438 28.0725 183.578 28.066C183.747 28.0583 183.899 28.0092 184.036 27.9186C184.199 27.7986 184.334 27.68 184.441 27.5626C184.82 27.236 185.168 26.8686 185.487 26.4604C185.833 26.0228 186.165 25.614 186.485 25.2338C187.072 24.5322 187.673 23.844 188.288 23.1691C188.904 22.4943 189.506 21.8201 190.094 21.1465C190.147 21.0878 190.201 21.0432 190.256 21.0125C190.31 20.9538 190.364 20.9232 190.421 20.9207C190.617 20.9117 190.72 21.0194 190.731 21.2438C190.734 21.328 190.684 21.4568 190.58 21.6303C190.263 22.0946 189.919 22.5602 189.547 23.0271C189.174 23.466 188.815 23.9182 188.471 24.3838C187.781 25.2869 187.091 26.1761 186.4 27.0512C185.737 27.925 185.075 28.8269 184.415 29.7568C184.332 29.7887 184.249 29.8066 184.164 29.8104C184.082 29.8424 183.998 29.8602 183.914 29.8641ZM191.303 28.0496C189.619 28.1267 188.74 27.3376 188.664 25.6823C188.634 25.037 188.768 24.2858 189.067 23.4287C189.392 22.5422 189.829 21.6506 190.378 20.7539C190.927 19.8572 191.55 19.0274 192.246 18.2645C192.941 17.4736 193.657 16.8363 194.394 16.3527C195.157 15.8398 195.876 15.5679 196.549 15.537C196.774 15.5268 196.931 15.5758 197.02 15.6842C197.136 15.7632 197.227 15.9136 197.294 16.1355C197.355 16.2452 197.403 16.3695 197.437 16.5085C197.472 16.6475 197.52 16.7859 197.583 16.9236C197.704 17.1148 197.811 17.3067 197.904 17.4993C197.997 17.6918 198.049 17.9003 198.059 18.1247C198.072 18.4053 198.014 18.661 197.884 18.8919C197.752 19.0947 197.593 19.2848 197.404 19.4621C197.135 19.7275 196.729 20.0694 196.186 20.4879C195.641 20.8783 195.041 21.2854 194.386 21.709C193.757 22.1033 193.141 22.4548 192.536 22.7637C191.96 23.0712 191.491 23.2614 191.129 23.3342C190.894 23.7386 190.65 24.2418 190.397 24.8438C190.17 25.4165 190.067 25.9413 190.089 26.4183C190.101 26.6708 190.167 26.8927 190.288 27.0839C190.438 27.2739 190.653 27.3625 190.933 27.3496C191.382 27.329 191.962 27.0916 192.672 26.6374C193.409 26.1538 194.17 25.5847 194.955 24.9302C195.739 24.2477 196.455 23.5964 197.101 22.9763C197.774 22.327 198.271 21.8262 198.592 21.4741L199.874 19.9816C200.034 19.8055 200.213 19.713 200.409 19.704C200.577 19.6963 200.665 19.7626 200.671 19.9029C200.679 20.0712 200.457 20.4328 200.004 20.9878C199.55 21.5146 199.001 22.1161 198.358 22.7923C197.741 23.439 197.164 24.0418 196.627 24.6006C196.089 25.1313 195.739 25.4707 195.577 25.6187C195.011 26.1507 194.361 26.6865 193.627 27.2262C192.891 27.7379 192.116 28.0123 191.303 28.0496ZM191.794 22.2073C192.067 22.0261 192.476 21.7403 193.02 21.3498C193.592 20.9581 194.177 20.5237 194.774 20.0465C195.37 19.5693 195.869 19.0966 196.269 18.6285C196.697 18.159 196.904 17.7559 196.889 17.4193C196.885 17.3351 196.867 17.2656 196.837 17.2108C196.807 17.184 196.751 17.1725 196.667 17.1764C196.302 17.1931 195.876 17.4094 195.389 17.8253C194.902 18.2413 194.419 18.7413 193.939 19.3256C193.459 19.8818 193.02 20.4361 192.624 20.9884C192.254 21.5114 191.978 21.9177 191.794 22.2073ZM203.732 29.5046C203.648 29.5084 203.535 29.4855 203.392 29.4358C203.25 29.4142 203.177 29.3473 203.172 29.235C203.164 29.0667 203.239 28.8664 203.397 28.6343C204.982 26.3968 206.351 24.6894 207.506 23.5119C208.662 22.3343 209.493 21.4669 210.002 20.9094C209.966 20.1238 209.906 19.4237 209.821 18.809C209.764 18.165 209.677 17.4942 209.561 16.7967C209.204 16.9817 208.899 17.08 208.646 17.0916C208.394 17.1031 208.262 16.9967 208.252 16.7722C208.238 16.4636 208.404 16.1046 208.751 15.6951C208.885 15.5484 209.155 15.3111 209.562 14.9832C209.969 14.6553 210.27 14.4868 210.467 14.4778C210.691 14.4676 210.862 14.516 210.979 14.623C211.125 14.7288 211.257 14.8493 211.375 14.9845C211.494 15.1196 211.595 15.4805 211.678 16.0671C211.761 16.6537 211.83 17.2409 211.885 17.8288C211.968 18.4155 212.015 18.821 212.025 19.0454C212.645 18.4548 213.142 17.954 213.517 17.5432C213.92 17.1312 214.417 16.6304 215.008 16.0411C215.304 15.7464 215.706 15.3203 216.215 14.7628C216.724 14.2053 217.125 13.7652 217.42 13.4424C217.566 12.9577 217.731 12.5566 217.913 12.239C218.067 11.9227 218.252 11.6612 218.467 11.4545C218.711 11.2465 218.973 11.1361 219.253 11.1233C219.479 11.141 219.667 11.2449 219.816 11.4349C219.993 11.6236 220.088 11.8442 220.099 12.0967C220.12 12.5456 219.968 12.918 219.644 13.214C219.349 13.5087 219.015 13.8895 218.642 14.3564C218.297 14.7939 218.048 15.4942 217.895 16.4571C217.872 16.5706 217.838 16.7408 217.792 16.9679C217.746 17.1949 217.653 17.3116 217.513 17.318C217.118 17.2799 216.908 16.9943 216.883 16.4612C216.878 16.349 216.872 16.2228 216.866 16.0825C216.886 15.9129 216.907 15.7573 216.929 15.6157L212.077 20.1817L212.168 22.1597C212.2 22.8611 212.246 23.5619 212.306 24.262C212.395 24.9608 212.5 25.4199 212.622 25.6392C212.712 25.7476 212.786 25.8426 212.846 25.9241C212.933 25.9764 213.033 26 213.145 25.9948C213.538 25.9768 214.018 25.7299 214.587 25.254C215.154 24.7501 215.759 24.146 216.402 23.4418C217.043 22.7096 217.643 21.9933 218.201 21.2929C218.786 20.5632 219.278 19.9503 219.677 19.4541C220.104 18.9565 220.36 18.7058 220.444 18.702L220.528 18.6981C220.669 18.6917 220.743 18.7727 220.75 18.941L220.754 19.0252C220.76 19.1655 220.711 19.3223 220.607 19.4958C220.319 19.9588 219.989 20.4238 219.617 20.8907C219.243 21.3295 218.884 21.7677 218.538 22.2053C218.114 22.7589 217.675 23.3132 217.223 23.8681C216.797 24.3937 216.342 24.9065 215.859 25.4066C215.591 25.7 215.27 26.0521 214.895 26.4629C214.549 26.8724 214.171 27.227 213.763 27.5269C213.385 27.8535 212.985 28.0264 212.564 28.0457C212.312 28.0573 211.998 27.9592 211.623 27.7515C211.277 27.5705 211.03 27.385 210.88 27.195C210.728 26.949 210.594 26.4771 210.478 25.7796C210.362 25.082 210.273 24.3692 210.211 23.641C210.149 22.8848 210.11 22.3523 210.096 22.0437C209.827 22.3091 209.466 22.7192 209.014 23.2741C208.561 23.829 208.069 24.442 207.538 25.113C207.033 25.7546 206.541 26.3816 206.063 26.9939C205.613 27.605 205.243 28.114 204.953 28.5209C204.768 28.7824 204.609 29.0005 204.476 29.1753C204.316 29.3513 204.068 29.4611 203.732 29.5046Z" fill="#C497A2"/>
</svg>
