<svg width="185" height="55" viewBox="0 0 185 55" fill="none" xmlns="http://www.w3.org/2000/svg">
<path d="M17.7084 40.0887C17.3884 40.2687 17.0084 40.3887 16.5684 40.4487C16.1484 40.5287 15.7084 40.5687 15.2484 40.5687V30.0387H3.27836V40.0887C2.95836 40.2687 2.57836 40.3887 2.13836 40.4487C1.71836 40.5287 1.27836 40.5687 0.818359 40.5687V19.2687C1.49836 18.9087 2.31836 18.7287 3.27836 18.7287V28.6287H15.2484V19.2687C15.9284 18.9087 16.7484 18.7287 17.7084 18.7287V40.0887Z" fill="#783766"/>
<path d="M23.8601 32.6187C23.9201 33.6987 24.1101 34.6487 24.4301 35.4687C24.7701 36.2687 25.2001 36.9387 25.7201 37.4787C26.2401 38.0187 26.8401 38.4287 27.5201 38.7087C28.2201 38.9687 28.9601 39.0987 29.7401 39.0987C30.7201 39.0987 31.5601 38.9687 32.2601 38.7087C32.9801 38.4487 33.6301 38.0387 34.2101 37.4787C34.4901 37.5387 34.6801 37.7287 34.7801 38.0487C34.6401 38.2687 34.4101 38.5387 34.0901 38.8587C33.7901 39.1787 33.3801 39.4887 32.8601 39.7887C32.3601 40.0887 31.7501 40.3387 31.0301 40.5387C30.3301 40.7587 29.5101 40.8687 28.5701 40.8687C27.5701 40.8687 26.6401 40.6887 25.7801 40.3287C24.9201 39.9687 24.1701 39.4487 23.5301 38.7687C22.8901 38.0887 22.3801 37.2487 22.0001 36.2487C21.6401 35.2487 21.4601 34.1187 21.4601 32.8587C21.4601 31.6987 21.6601 30.6087 22.0601 29.5887C22.4601 28.5487 23.0001 27.6487 23.6801 26.8887C24.3801 26.1287 25.1901 25.5287 26.1101 25.0887C27.0501 24.6287 28.0501 24.3987 29.1101 24.3987C30.2501 24.3987 31.1901 24.5887 31.9301 24.9687C32.6701 25.3487 33.2501 25.8387 33.6701 26.4387C34.1101 27.0387 34.4101 27.6987 34.5701 28.4187C34.7501 29.1387 34.8401 29.8387 34.8401 30.5187C34.6801 30.7587 34.4601 30.9687 34.1801 31.1487C33.9201 31.3287 33.6301 31.4687 33.3101 31.5687L23.8601 32.6187ZM28.3301 25.7487C27.7101 25.7487 27.1301 25.8587 26.5901 26.0787C26.0501 26.2987 25.5801 26.6387 25.1801 27.0987C24.7801 27.5587 24.4501 28.1487 24.1901 28.8687C23.9501 29.5887 23.8201 30.4587 23.8001 31.4787L32.2601 30.6087C32.2801 30.5087 32.2901 30.4087 32.2901 30.3087C32.2901 30.2087 32.2901 30.1187 32.2901 30.0387C32.2901 29.4187 32.2101 28.8487 32.0501 28.3287C31.8901 27.8087 31.6401 27.3587 31.3001 26.9787C30.9801 26.5987 30.5701 26.2987 30.0701 26.0787C29.5901 25.8587 29.0101 25.7487 28.3301 25.7487Z" fill="#783766"/>
<path d="M51.44 39.2487C51.38 39.3487 51.28 39.4687 51.14 39.6087C51.02 39.7487 50.88 39.8887 50.72 40.0287C50.56 40.1487 50.38 40.2587 50.18 40.3587C50 40.4587 49.83 40.5287 49.67 40.5687C49.03 40.5287 48.49 40.2887 48.05 39.8487C47.61 39.3887 47.37 38.7887 47.33 38.0487C47.17 38.3487 46.93 38.6687 46.61 39.0087C46.29 39.3287 45.9 39.6287 45.44 39.9087C45 40.1687 44.49 40.3787 43.91 40.5387C43.33 40.7187 42.7 40.8087 42.02 40.8087C40.6 40.8087 39.47 40.4487 38.63 39.7287C37.81 39.0087 37.4 38.0487 37.4 36.8487C37.4 35.6087 37.87 34.5687 38.81 33.7287C39.75 32.8887 41.36 32.2687 43.64 31.8687L47.21 31.2387V30.0687C47.21 28.6287 46.87 27.5287 46.19 26.7687C45.53 26.0087 44.54 25.6287 43.22 25.6287C42.4 25.6287 41.7 25.8387 41.12 26.2587C40.56 26.6587 40.28 27.2587 40.28 28.0587C40.28 28.4187 40.4 28.7387 40.64 29.0187C40.46 29.2587 40.17 29.4787 39.77 29.6787C39.37 29.8787 38.96 29.9987 38.54 30.0387C38.44 29.9387 38.32 29.7887 38.18 29.5887C38.04 29.3887 37.97 29.1187 37.97 28.7787C37.97 28.1587 38.15 27.5787 38.51 27.0387C38.87 26.4987 39.34 26.0387 39.92 25.6587C40.5 25.2587 41.17 24.9487 41.93 24.7287C42.69 24.5087 43.48 24.3987 44.3 24.3987C46.22 24.3987 47.58 24.8387 48.38 25.7187C49.18 26.5787 49.58 27.7887 49.58 29.3487V36.8787C49.58 37.6987 49.76 38.2687 50.12 38.5887C50.48 38.8887 50.9 39.0687 51.38 39.1287L51.44 39.2487ZM42.98 39.2187C44.02 39.2187 44.9 38.9787 45.62 38.4987C46.36 38.0187 46.89 37.3987 47.21 36.6387V32.3187L43.19 33.0387C42.11 33.2387 41.28 33.5787 40.7 34.0587C40.14 34.5387 39.86 35.2287 39.86 36.1287C39.86 37.1287 40.16 37.8987 40.76 38.4387C41.38 38.9587 42.12 39.2187 42.98 39.2187Z" fill="#783766"/>
<path d="M54.3508 17.7087C54.6908 17.5287 55.0608 17.3987 55.4608 17.3187C55.8808 17.2387 56.3008 17.1987 56.7208 17.1987V40.1187C56.4408 40.2787 56.0708 40.3887 55.6108 40.4487C55.1708 40.5287 54.7508 40.5687 54.3508 40.5687V17.7087Z" fill="#783766"/>
<path d="M64.5274 19.9887C64.3474 20.3087 64.0674 20.6487 63.6874 21.0087C63.3074 21.3487 62.9674 21.5887 62.6674 21.7287C62.3674 21.5887 62.0274 21.3487 61.6474 21.0087C61.2674 20.6487 60.9774 20.3087 60.7774 19.9887C60.9774 19.6487 61.2674 19.2987 61.6474 18.9387C62.0274 18.5787 62.3674 18.3187 62.6674 18.1587C62.9674 18.3187 63.3074 18.5787 63.6874 18.9387C64.0874 19.2987 64.3674 19.6487 64.5274 19.9887ZM61.4074 25.2087C61.7474 25.0287 62.1174 24.8987 62.5174 24.8187C62.9374 24.7387 63.3574 24.6987 63.7774 24.6987V40.1187C63.4974 40.2787 63.1274 40.3887 62.6674 40.4487C62.2274 40.5287 61.8074 40.5687 61.4074 40.5687V25.2087Z" fill="#783766"/>
<path d="M79.5048 30.9987C79.5048 29.2987 79.1548 28.0587 78.4548 27.2787C77.7548 26.4787 76.7648 26.0787 75.4848 26.0787C75.0248 26.0787 74.5648 26.1687 74.1048 26.3487C73.6648 26.5087 73.2348 26.7287 72.8148 27.0087C72.4148 27.2887 72.0348 27.6187 71.6748 27.9987C71.3148 28.3587 70.9948 28.7387 70.7148 29.1387V40.1187C70.4348 40.2787 70.0648 40.3887 69.6048 40.4487C69.1648 40.5287 68.7448 40.5687 68.3448 40.5687V25.2087C69.0048 24.8687 69.7448 24.6987 70.5648 24.6987V27.6687C70.8248 27.3287 71.1548 26.9687 71.5548 26.5887C71.9748 26.1887 72.4348 25.8287 72.9348 25.5087C73.4548 25.1887 74.0148 24.9287 74.6148 24.7287C75.2348 24.5087 75.8948 24.3987 76.5948 24.3987C78.2148 24.3987 79.4948 24.8887 80.4348 25.8687C81.3948 26.8487 81.8748 28.2487 81.8748 30.0687V40.1187C81.5948 40.2787 81.2248 40.3887 80.7648 40.4487C80.3248 40.5287 79.9048 40.5687 79.5048 40.5687V30.9987Z" fill="#783766"/>
<path d="M91.3391 35.2887C91.0391 35.2887 90.7491 35.2787 90.4691 35.2587C90.2091 35.2187 89.9391 35.1787 89.6591 35.1387C89.1391 35.3387 88.7191 35.5987 88.3991 35.9187C88.0791 36.2187 87.9191 36.5587 87.9191 36.9387C87.9191 37.5187 88.2191 37.9187 88.8191 38.1387C89.4191 38.3587 90.2991 38.4987 91.4591 38.5587L94.6091 38.7087C95.5491 38.7487 96.3391 38.8987 96.9791 39.1587C97.6391 39.4187 98.1691 39.7487 98.5691 40.1487C98.9691 40.5287 99.2591 40.9587 99.4391 41.4387C99.6191 41.9187 99.7091 42.3987 99.7091 42.8787C99.7091 43.6987 99.4991 44.4487 99.0791 45.1287C98.6591 45.8087 98.0691 46.3887 97.3091 46.8687C96.5691 47.3487 95.6791 47.7187 94.6391 47.9787C93.5991 48.2587 92.4591 48.3987 91.2191 48.3987C90.2791 48.3987 89.4191 48.3187 88.6391 48.1587C87.8591 47.9987 87.1791 47.7487 86.5991 47.4087C86.0391 47.0887 85.5991 46.6887 85.2791 46.2087C84.9591 45.7487 84.7991 45.1987 84.7991 44.5587C84.7991 44.0587 84.8891 43.6187 85.0691 43.2387C85.2691 42.8587 85.5191 42.5287 85.8191 42.2487C86.1391 41.9687 86.4891 41.7287 86.8691 41.5287C87.2491 41.3487 87.6291 41.2087 88.0091 41.1087C88.1091 41.1487 88.1891 41.2287 88.2491 41.3487C88.3091 41.4687 88.3491 41.5787 88.3691 41.6787C88.0091 41.8787 87.6991 42.1487 87.4391 42.4887C87.1791 42.8287 87.0491 43.3087 87.0491 43.9287C87.0491 44.4487 87.1791 44.8987 87.4391 45.2787C87.7191 45.6787 88.0991 46.0087 88.5791 46.2687C89.0591 46.5287 89.6291 46.7187 90.2891 46.8387C90.9691 46.9587 91.7091 47.0187 92.5091 47.0187C94.2091 47.0187 95.4791 46.7187 96.3191 46.1187C97.1791 45.5187 97.6091 44.7687 97.6091 43.8687C97.6091 42.9687 97.2891 42.2387 96.6491 41.6787C96.0091 41.1187 94.8991 40.7887 93.3191 40.6887L90.1991 40.5087C88.6991 40.4087 87.5991 40.1587 86.8991 39.7587C86.1991 39.3387 85.8491 38.7087 85.8491 37.8687C85.8491 37.5087 85.9191 37.1687 86.0591 36.8487C86.2191 36.5287 86.4191 36.2387 86.6591 35.9787C86.9191 35.7187 87.1991 35.4887 87.4991 35.2887C87.8191 35.0687 88.1291 34.8887 88.4291 34.7487C87.5491 34.3687 86.8591 33.8087 86.3591 33.0687C85.8591 32.3087 85.6091 31.3887 85.6091 30.3087C85.6091 29.4887 85.7791 28.7187 86.1191 27.9987C86.4791 27.2787 86.9691 26.6587 87.5891 26.1387C88.2091 25.5987 88.9291 25.1787 89.7491 24.8787C90.5891 24.5587 91.4891 24.3987 92.4491 24.3987C92.7891 24.3987 93.1091 24.4187 93.4091 24.4587C93.7091 24.4987 93.9991 24.5487 94.2791 24.6087C94.3791 24.6287 94.4791 24.6387 94.5791 24.6387C94.6991 24.6387 94.8391 24.6387 94.9991 24.6387C95.8791 24.6387 96.4791 24.4987 96.7991 24.2187C97.1391 23.9187 97.3091 23.5487 97.3091 23.1087C97.3091 22.8487 97.2591 22.6287 97.1591 22.4487C97.0591 22.2487 96.9291 22.0787 96.7691 21.9387C97.3891 21.3587 98.1291 21.0687 98.9891 21.0687C99.1691 21.2287 99.3191 21.4487 99.4391 21.7287C99.5591 21.9887 99.6191 22.2887 99.6191 22.6287C99.6191 23.4687 99.2791 24.1187 98.5991 24.5787C97.9391 25.0187 97.0691 25.2587 95.9891 25.2987C96.7491 25.7987 97.2891 26.4287 97.6091 27.1887C97.9491 27.9487 98.1191 28.7087 98.1191 29.4687C98.1191 30.3487 97.9391 31.1487 97.5791 31.8687C97.2191 32.5687 96.7291 33.1787 96.1091 33.6987C95.5091 34.1987 94.7891 34.5887 93.9491 34.8687C93.1291 35.1487 92.2591 35.2887 91.3391 35.2887ZM91.6991 25.5987C91.1991 25.5987 90.7291 25.6887 90.2891 25.8687C89.8691 26.0287 89.4891 26.2787 89.1491 26.6187C88.8291 26.9387 88.5691 27.3387 88.3691 27.8187C88.1891 28.2987 88.0991 28.8587 88.0991 29.4987C88.0991 30.2187 88.1991 30.8687 88.3991 31.4487C88.5991 32.0087 88.8691 32.4887 89.2091 32.8887C89.5691 33.2687 89.9891 33.5687 90.4691 33.7887C90.9491 33.9887 91.4591 34.0887 91.9991 34.0887C92.4991 34.0887 92.9691 34.0187 93.4091 33.8787C93.8491 33.7387 94.2291 33.5187 94.5491 33.2187C94.8891 32.9187 95.1491 32.5287 95.3291 32.0487C95.5291 31.5687 95.6291 30.9887 95.6291 30.3087C95.6291 29.6887 95.5391 29.0987 95.3591 28.5387C95.1991 27.9787 94.9491 27.4787 94.6091 27.0387C94.2891 26.5987 93.8791 26.2487 93.3791 25.9887C92.8991 25.7287 92.3391 25.5987 91.6991 25.5987Z" fill="#783766"/>
<path d="M135.514 22.3652C135.334 22.6852 135.054 23.0252 134.674 23.3852C134.294 23.7252 133.954 23.9652 133.654 24.1052C133.354 23.9652 133.014 23.7252 132.634 23.3852C132.254 23.0252 131.964 22.6852 131.764 22.3652C131.964 22.0252 132.254 21.6752 132.634 21.3152C133.014 20.9552 133.354 20.6952 133.654 20.5352C133.954 20.6952 134.294 20.9552 134.674 21.3152C135.074 21.6752 135.354 22.0252 135.514 22.3652ZM132.394 27.5852C132.734 27.4052 133.104 27.2752 133.504 27.1952C133.924 27.1152 134.344 27.0752 134.764 27.0752V42.4952C134.484 42.6552 134.114 42.7652 133.654 42.8252C133.214 42.9052 132.794 42.9452 132.394 42.9452V27.5852Z" fill="#783766"/>
<path d="M139.391 20.0852C139.731 19.9052 140.101 19.7752 140.501 19.6952C140.921 19.6152 141.341 19.5752 141.761 19.5752V29.8352C142.041 29.4752 142.371 29.1152 142.751 28.7552C143.151 28.3952 143.601 28.0752 144.101 27.7952C144.601 27.4952 145.151 27.2552 145.751 27.0752C146.371 26.8752 147.031 26.7752 147.731 26.7752C148.731 26.7752 149.621 26.9552 150.401 27.3152C151.201 27.6752 151.881 28.1752 152.441 28.8152C153.001 29.4552 153.421 30.2152 153.701 31.0952C154.001 31.9552 154.151 32.8852 154.151 33.8852C154.151 35.1852 153.931 36.4052 153.491 37.5452C153.051 38.6652 152.431 39.6452 151.631 40.4852C150.851 41.3252 149.901 41.9952 148.781 42.4952C147.681 42.9752 146.461 43.2152 145.121 43.2152C143.761 43.2152 142.611 43.0652 141.671 42.7652C140.731 42.4652 139.971 42.1152 139.391 41.7152V20.0852ZM146.621 28.4552C145.561 28.4552 144.601 28.7752 143.741 29.4152C142.881 30.0352 142.221 30.8052 141.761 31.7252V40.5452C142.241 40.9252 142.851 41.2352 143.591 41.4752C144.351 41.7152 145.201 41.8352 146.141 41.8352C146.901 41.8352 147.611 41.6952 148.271 41.4152C148.951 41.1152 149.541 40.6852 150.041 40.1252C150.541 39.5652 150.931 38.8652 151.211 38.0252C151.511 37.1852 151.661 36.2152 151.661 35.1152C151.661 32.9952 151.211 31.3552 150.311 30.1952C149.411 29.0352 148.181 28.4552 146.621 28.4552Z" fill="#783766"/>
<path d="M158.899 34.9952C158.959 36.0752 159.149 37.0252 159.469 37.8452C159.809 38.6452 160.239 39.3152 160.759 39.8552C161.279 40.3952 161.879 40.8052 162.559 41.0852C163.259 41.3452 163.999 41.4752 164.779 41.4752C165.759 41.4752 166.599 41.3452 167.299 41.0852C168.019 40.8252 168.669 40.4152 169.249 39.8552C169.529 39.9152 169.719 40.1052 169.819 40.4252C169.679 40.6452 169.449 40.9152 169.129 41.2352C168.829 41.5552 168.419 41.8652 167.899 42.1652C167.399 42.4652 166.789 42.7152 166.069 42.9152C165.369 43.1352 164.549 43.2452 163.609 43.2452C162.609 43.2452 161.679 43.0652 160.819 42.7052C159.959 42.3452 159.209 41.8252 158.569 41.1452C157.929 40.4652 157.419 39.6252 157.039 38.6252C156.679 37.6252 156.499 36.4952 156.499 35.2352C156.499 34.0752 156.699 32.9852 157.099 31.9652C157.499 30.9252 158.039 30.0252 158.719 29.2652C159.419 28.5052 160.229 27.9052 161.149 27.4652C162.089 27.0052 163.089 26.7752 164.149 26.7752C165.289 26.7752 166.229 26.9652 166.969 27.3452C167.709 27.7252 168.289 28.2152 168.709 28.8152C169.149 29.4152 169.449 30.0752 169.609 30.7952C169.789 31.5152 169.879 32.2152 169.879 32.8952C169.719 33.1352 169.499 33.3452 169.219 33.5252C168.959 33.7052 168.669 33.8452 168.349 33.9452L158.899 34.9952ZM163.369 28.1252C162.749 28.1252 162.169 28.2352 161.629 28.4552C161.089 28.6752 160.619 29.0152 160.219 29.4752C159.819 29.9352 159.489 30.5252 159.229 31.2452C158.989 31.9652 158.859 32.8352 158.839 33.8552L167.299 32.9852C167.319 32.8852 167.329 32.7852 167.329 32.6852C167.329 32.5852 167.329 32.4952 167.329 32.4152C167.329 31.7952 167.249 31.2252 167.089 30.7052C166.929 30.1852 166.679 29.7352 166.339 29.3552C166.019 28.9752 165.609 28.6752 165.109 28.4552C164.629 28.2352 164.049 28.1252 163.369 28.1252Z" fill="#783766"/>
<path d="M171.989 39.5552C172.149 39.2752 172.409 39.0152 172.769 38.7752C173.149 38.5352 173.549 38.3952 173.969 38.3552C174.109 39.3752 174.599 40.2252 175.439 40.9052C176.299 41.5652 177.389 41.8952 178.709 41.8952C179.969 41.8952 180.899 41.6252 181.499 41.0852C182.119 40.5252 182.429 39.8352 182.429 39.0152C182.429 38.1952 182.139 37.5552 181.559 37.0952C180.999 36.6352 180.029 36.2352 178.649 35.8952L176.879 35.4452C176.239 35.2852 175.659 35.1052 175.139 34.9052C174.639 34.7052 174.199 34.4652 173.819 34.1852C173.459 33.8852 173.179 33.5352 172.979 33.1352C172.779 32.7352 172.679 32.2452 172.679 31.6652C172.679 31.0452 172.839 30.4452 173.159 29.8652C173.479 29.2652 173.919 28.7352 174.479 28.2752C175.059 27.8152 175.719 27.4552 176.459 27.1952C177.219 26.9152 178.039 26.7752 178.919 26.7752C179.819 26.7752 180.579 26.8852 181.199 27.1052C181.819 27.3052 182.329 27.5652 182.729 27.8852C183.149 28.1852 183.449 28.5152 183.629 28.8752C183.829 29.2352 183.939 29.5552 183.959 29.8352C183.819 30.1152 183.579 30.3652 183.239 30.5852C182.899 30.7852 182.529 30.9052 182.129 30.9452C181.989 30.1852 181.599 29.5252 180.959 28.9652C180.319 28.4052 179.359 28.1252 178.079 28.1252C177.659 28.1252 177.239 28.1852 176.819 28.3052C176.419 28.4052 176.059 28.5652 175.739 28.7852C175.419 29.0052 175.159 29.2752 174.959 29.5952C174.759 29.8952 174.659 30.2552 174.659 30.6752C174.659 31.3552 174.899 31.9052 175.379 32.3252C175.859 32.7252 176.699 33.0652 177.899 33.3452L179.729 33.7952C181.469 34.2352 182.709 34.7952 183.449 35.4752C184.209 36.1352 184.589 36.9852 184.589 38.0252C184.589 38.6852 184.439 39.3352 184.139 39.9752C183.839 40.5952 183.399 41.1552 182.819 41.6552C182.239 42.1352 181.529 42.5152 180.689 42.7952C179.849 43.0952 178.889 43.2452 177.809 43.2452C176.869 43.2452 176.049 43.1252 175.349 42.8852C174.649 42.6652 174.049 42.3752 173.549 42.0152C173.069 41.6552 172.699 41.2652 172.439 40.8452C172.179 40.4052 172.029 39.9752 171.989 39.5552Z" fill="#783766"/>
<path fill-rule="evenodd" clip-rule="evenodd" d="M86.7657 12.6345C86.8417 12.226 87.2345 11.9563 87.643 12.0323C99.2399 14.1883 106.878 17.8896 111.78 22.2937C116.695 26.7093 118.811 31.789 119.435 36.5906C120.056 41.3747 119.193 45.8626 118.187 49.1376C117.683 50.7784 117.141 52.1238 116.723 53.0615C116.514 53.5306 116.336 53.8983 116.209 54.1507C116.146 54.2768 116.095 54.3742 116.06 54.4411C116.042 54.4745 116.028 54.5003 116.018 54.5182L116.007 54.5392L116.004 54.5452L116.003 54.5471C116.003 54.5471 116.002 54.5483 115.344 54.1837C114.785 54.687 114.784 54.6861 114.784 54.6861L114.783 54.685L114.78 54.6822L114.773 54.6743C114.768 54.668 114.76 54.6597 114.752 54.6493C114.734 54.6286 114.709 54.5996 114.679 54.5625C114.619 54.4883 114.535 54.3812 114.432 54.2412C114.228 53.9611 113.951 53.5489 113.645 53.0036C113.034 51.9125 112.307 50.2888 111.816 48.1253C110.833 43.7875 110.812 37.3368 114.479 28.7305C114.567 28.5236 114.737 28.3765 114.935 28.311C113.88 26.6252 112.515 24.9775 110.774 23.4131C106.141 19.2502 98.7896 15.6353 87.368 13.5118C86.9594 13.4358 86.6898 13.0431 86.7657 12.6345ZM115.716 29.6698C112.313 37.8305 112.389 43.8437 113.284 47.7926C113.739 49.8005 114.409 51.2892 114.958 52.2676C115.051 52.4337 115.141 52.5852 115.225 52.7219C115.265 52.6356 115.306 52.5446 115.349 52.4491C115.746 51.5567 116.266 50.2687 116.749 48.6958C117.717 45.5434 118.526 41.2833 117.942 36.7843C117.638 34.4428 116.957 32.0312 115.716 29.6698ZM115.344 54.1837L114.785 54.687C114.947 54.8678 115.187 54.9588 115.429 54.9313C115.671 54.9037 115.884 54.761 116.002 54.5483L115.344 54.1837Z" fill="#C497A2"/>
<path fill-rule="evenodd" clip-rule="evenodd" d="M143.544 12.7199C143.573 13.1345 143.26 13.4939 142.845 13.5227C131.761 14.293 123.917 17.7064 119.388 23.3167C119.127 23.64 118.653 23.6905 118.329 23.4294C118.006 23.1684 117.956 22.6946 118.217 22.3713C123.11 16.3102 131.433 12.8073 142.741 12.0214C143.156 11.9926 143.515 12.3053 143.544 12.7199Z" fill="#C497A2"/>
<path fill-rule="evenodd" clip-rule="evenodd" d="M112.883 2.25883C109.826 3.52509 108.374 7.02973 109.641 10.0867C110.907 13.1436 114.412 14.5953 117.469 13.329C120.525 12.0628 121.977 8.55811 120.711 5.50116C119.445 2.44422 115.94 0.992577 112.883 2.25883ZM108.25 10.6626C106.666 6.83778 108.482 2.45281 112.307 0.868486C116.132 -0.715837 120.517 1.10044 122.101 4.92525C123.686 8.75006 121.869 13.135 118.044 14.7194C114.22 16.3037 109.835 14.4874 108.25 10.6626Z" fill="#C497A2"/>
</svg>
