<svg xmlns="http://www.w3.org/2000/svg" width="276" height="83" viewBox="0 0 276 83" fill="none"><path d="M25.3666 60.2362C24.886 60.5066 24.3153 60.6868 23.6545 60.7769C23.0237 60.8971 22.3629 60.9571 21.672 60.9571V45.1424H3.6946V60.2362C3.21401 60.5066 2.64329 60.6868 1.98247 60.7769C1.35168 60.8971 0.690861 60.9571 0 60.9571V28.9673C1.02127 28.4266 2.25281 28.1563 3.6946 28.1563V43.0248H21.672V28.9673C22.6933 28.4266 23.9248 28.1563 25.3666 28.1563V60.2362Z" fill="white"></path><path d="M34.6057 49.0173C34.6958 50.6393 34.9812 52.0661 35.4618 53.2976C35.9724 54.4991 36.6182 55.5053 37.3992 56.3164C38.1802 57.1274 39.0813 57.7431 40.1026 58.1637C41.1539 58.5541 42.2653 58.7494 43.4367 58.7494C44.9086 58.7494 46.1701 58.5541 47.2214 58.1637C48.3028 57.7732 49.279 57.1574 50.1501 56.3164C50.5706 56.4065 50.856 56.6918 51.0061 57.1724C50.7959 57.5028 50.4505 57.9083 49.9699 58.3889C49.5193 58.8695 48.9035 59.3351 48.1226 59.7857C47.3716 60.2362 46.4555 60.6117 45.3741 60.9121C44.3228 61.2425 43.0913 61.4077 41.6795 61.4077C40.1777 61.4077 38.7809 61.1374 37.4893 60.5967C36.1977 60.056 35.0713 59.275 34.1101 58.2538C33.1489 57.2325 32.3829 55.9709 31.8122 54.4691C31.2716 52.9672 31.0012 51.2701 31.0012 49.3777C31.0012 47.6355 31.3016 45.9985 31.9023 44.4666C32.5031 42.9046 33.3141 41.553 34.3354 40.4115C35.3867 39.2701 36.6032 38.369 37.9849 37.7082C39.3967 37.0173 40.8986 36.6719 42.4905 36.6719C44.2027 36.6719 45.6144 36.9572 46.7258 37.5279C47.8372 38.0987 48.7083 38.8346 49.3391 39.7357C49.9999 40.6368 50.4505 41.6281 50.6908 42.7094C50.9611 43.7907 51.0963 44.8421 51.0963 45.8633C50.856 46.2238 50.5255 46.5392 50.105 46.8095C49.7145 47.0798 49.279 47.2901 48.7984 47.4403L34.6057 49.0173ZM41.3191 38.6994C40.3879 38.6994 39.5168 38.8646 38.7058 39.195C37.8948 39.5254 37.1889 40.0361 36.5882 40.7269C35.9874 41.4178 35.4918 42.3039 35.1013 43.3852C34.7409 44.4666 34.5456 45.7732 34.5156 47.3051L47.2214 45.9985C47.2515 45.8483 47.2665 45.6981 47.2665 45.5479C47.2665 45.3978 47.2665 45.2626 47.2665 45.1424C47.2665 44.2113 47.1463 43.3552 46.906 42.5742C46.6657 41.7933 46.2903 41.1174 45.7796 40.5467C45.299 39.976 44.6833 39.5254 43.9323 39.195C43.2114 38.8646 42.3403 38.6994 41.3191 38.6994Z" fill="white"></path><path d="M76.0272 58.9747C75.9371 59.1249 75.7869 59.3051 75.5767 59.5153C75.3964 59.7256 75.1862 59.9359 74.9459 60.1461C74.7056 60.3264 74.4352 60.4916 74.1349 60.6417C73.8645 60.7919 73.6092 60.8971 73.3689 60.9571C72.4077 60.8971 71.5967 60.5366 70.9359 59.8758C70.275 59.1849 69.9146 58.2838 69.8545 57.1724C69.6142 57.623 69.2538 58.1036 68.7732 58.6142C68.2926 59.0948 67.7068 59.5454 67.016 59.9659C66.3552 60.3564 65.5892 60.6718 64.7181 60.9121C63.847 61.1824 62.9009 61.3176 61.8796 61.3176C59.7469 61.3176 58.0498 60.7769 56.7882 59.6956C55.5567 58.6142 54.9409 57.1724 54.9409 55.3702C54.9409 53.5079 55.6468 51.9459 57.0586 50.6843C58.4703 49.4228 60.8883 48.4916 64.3126 47.8909L69.6743 46.9447V45.1875C69.6743 43.0248 69.1637 41.3727 68.1424 40.2313C67.1512 39.0899 65.6643 38.5192 63.6818 38.5192C62.4503 38.5192 61.399 38.8346 60.5279 39.4654C59.6868 40.0661 59.2663 40.9672 59.2663 42.1687C59.2663 42.7094 59.4465 43.19 59.807 43.6105C59.5367 43.971 59.1011 44.3014 58.5004 44.6018C57.8996 44.9021 57.2839 45.0824 56.6531 45.1424C56.5029 44.9922 56.3227 44.767 56.1124 44.4666C55.9021 44.1662 55.797 43.7607 55.797 43.2501C55.797 42.3189 56.0673 41.4478 56.608 40.6368C57.1487 39.8258 57.8546 39.1349 58.7257 38.5642C59.5967 37.9635 60.603 37.4979 61.7444 37.1675C62.8858 36.8371 64.0723 36.6719 65.3038 36.6719C68.1874 36.6719 70.23 37.3327 71.4315 38.6543C72.633 39.946 73.2337 41.7632 73.2337 44.1061V55.4152C73.2337 56.6468 73.5041 57.5028 74.0447 57.9834C74.5854 58.434 75.2162 58.7043 75.9371 58.7944L76.0272 58.9747ZM63.3214 58.9296C64.8833 58.9296 66.205 58.5692 67.2863 57.8483C68.3977 57.1274 69.1937 56.1962 69.6743 55.0548V48.5667L63.6368 49.648C62.0147 49.9484 60.7682 50.4591 59.8971 51.18C59.0561 51.9009 58.6355 52.9371 58.6355 54.2888C58.6355 55.7907 59.0861 56.9471 59.9872 57.7582C60.9184 58.5391 62.0298 58.9296 63.3214 58.9296Z" fill="white"></path><path d="M80.3988 26.6244C80.9095 26.354 81.4652 26.1588 82.0659 26.0386C82.6967 25.9185 83.3275 25.8584 83.9583 25.8584V60.2813C83.5378 60.5216 82.9821 60.6868 82.2912 60.7769C81.6304 60.8971 80.9996 60.9571 80.3988 60.9571V26.6244Z" fill="white"></path><path d="M95.6829 30.0486C95.4125 30.5292 94.992 31.0399 94.4213 31.5805C93.8506 32.0912 93.3399 32.4516 92.8894 32.6619C92.4388 32.4516 91.9282 32.0912 91.3575 31.5805C90.7868 31.0399 90.3512 30.5292 90.0508 30.0486C90.3512 29.538 90.7868 29.0123 91.3575 28.4717C91.9282 27.931 92.4388 27.5405 92.8894 27.3002C93.3399 27.5405 93.8506 27.931 94.4213 28.4717C95.022 29.0123 95.4426 29.538 95.6829 30.0486ZM90.997 37.8884C91.5076 37.6181 92.0633 37.4228 92.6641 37.3027C93.2949 37.1825 93.9257 37.1224 94.5564 37.1224V60.2813C94.1359 60.5216 93.5802 60.6868 92.8894 60.7769C92.2285 60.8971 91.5978 60.9571 90.997 60.9571V37.8884Z" fill="white"></path><path d="M118.177 46.5842C118.177 44.031 117.651 42.1687 116.6 40.9973C115.549 39.7958 114.062 39.195 112.139 39.195C111.449 39.195 110.758 39.3302 110.067 39.6005C109.406 39.8408 108.76 40.1712 108.129 40.5918C107.529 41.0123 106.958 41.5079 106.417 42.0786C105.877 42.6193 105.396 43.19 104.975 43.7907V60.2813C104.555 60.5216 103.999 60.6868 103.308 60.7769C102.648 60.8971 102.017 60.9571 101.416 60.9571V37.8884C102.407 37.3778 103.519 37.1224 104.75 37.1224V41.583C105.141 41.0724 105.636 40.5317 106.237 39.961C106.868 39.3602 107.559 38.8196 108.31 38.339C109.091 37.8584 109.932 37.4679 110.833 37.1675C111.764 36.8371 112.755 36.6719 113.806 36.6719C116.239 36.6719 118.162 37.4078 119.574 38.8796C121.015 40.3515 121.736 42.4541 121.736 45.1875V60.2813C121.316 60.5216 120.76 60.6868 120.069 60.7769C119.408 60.8971 118.778 60.9571 118.177 60.9571V46.5842Z" fill="white"></path><path d="M135.951 53.0273C135.5 53.0273 135.065 53.0122 134.644 52.9822C134.254 52.9221 133.848 52.8621 133.427 52.802C132.646 53.1024 132.016 53.4928 131.535 53.9734C131.055 54.424 130.814 54.9346 130.814 55.5053C130.814 56.3764 131.265 56.9772 132.166 57.3076C133.067 57.638 134.389 57.8483 136.131 57.9384L140.862 58.1637C142.273 58.2237 143.46 58.449 144.421 58.8395C145.412 59.23 146.208 59.7256 146.809 60.3264C147.41 60.8971 147.845 61.5429 148.116 62.2638C148.386 62.9847 148.521 63.7056 148.521 64.4265C148.521 65.658 148.206 66.7844 147.575 67.8057C146.944 68.827 146.058 69.698 144.917 70.4189C143.805 71.1398 142.469 71.6955 140.907 72.086C139.345 72.5065 137.633 72.7168 135.77 72.7168C134.359 72.7168 133.067 72.5966 131.896 72.3563C130.724 72.116 129.703 71.7406 128.832 71.2299C127.991 70.7493 127.33 70.1486 126.849 69.4277C126.369 68.7368 126.128 67.9108 126.128 66.9496C126.128 66.1987 126.264 65.5378 126.534 64.9671C126.834 64.3964 127.21 63.9008 127.66 63.4803C128.141 63.0598 128.667 62.6993 129.237 62.3989C129.808 62.1286 130.379 61.9183 130.949 61.7682C131.1 61.8282 131.22 61.9484 131.31 62.1286C131.4 62.3088 131.46 62.474 131.49 62.6242C130.949 62.9246 130.484 63.3301 130.093 63.8407C129.703 64.3514 129.508 65.0723 129.508 66.0034C129.508 66.7844 129.703 67.4602 130.093 68.031C130.514 68.6317 131.085 69.1273 131.805 69.5178C132.526 69.9083 133.382 70.1937 134.374 70.3739C135.395 70.5541 136.506 70.6442 137.708 70.6442C140.261 70.6442 142.168 70.1937 143.43 69.2925C144.722 68.3914 145.367 67.265 145.367 65.9133C145.367 64.5616 144.887 63.4653 143.926 62.6242C142.964 61.7832 141.297 61.2876 138.924 61.1374L134.238 60.867C131.986 60.7168 130.334 60.3414 129.282 59.7406C128.231 59.1098 127.705 58.1637 127.705 56.9021C127.705 56.3614 127.81 55.8508 128.021 55.3702C128.261 54.8896 128.561 54.454 128.922 54.0636C129.312 53.6731 129.733 53.3276 130.183 53.0273C130.664 52.6968 131.13 52.4265 131.58 52.2162C130.259 51.6455 129.222 50.8045 128.471 49.6931C127.72 48.5517 127.345 47.17 127.345 45.5479C127.345 44.3164 127.6 43.16 128.111 42.0786C128.652 40.9973 129.387 40.0661 130.319 39.2851C131.25 38.4741 132.331 37.8433 133.563 37.3928C134.824 36.9122 136.176 36.6719 137.618 36.6719C138.128 36.6719 138.609 36.7019 139.059 36.762C139.51 36.8221 139.946 36.8972 140.366 36.9873C140.516 37.0173 140.667 37.0323 140.817 37.0323C140.997 37.0323 141.207 37.0323 141.447 37.0323C142.769 37.0323 143.67 36.8221 144.151 36.4015C144.661 35.951 144.917 35.3953 144.917 34.7345C144.917 34.344 144.842 34.0136 144.692 33.7432C144.541 33.4428 144.346 33.1875 144.106 32.9773C145.037 32.1062 146.148 31.6706 147.44 31.6706C147.71 31.9109 147.936 32.2414 148.116 32.6619C148.296 33.0524 148.386 33.5029 148.386 34.0136C148.386 35.2751 147.875 36.2514 146.854 36.9422C145.863 37.603 144.556 37.9635 142.934 38.0236C144.076 38.7745 144.887 39.7207 145.367 40.8621C145.878 42.0035 146.133 43.1449 146.133 44.2864C146.133 45.608 145.863 46.8095 145.322 47.8909C144.782 48.9422 144.046 49.8583 143.115 50.6393C142.213 51.3902 141.132 51.9759 139.87 52.3965C138.639 52.817 137.332 53.0273 135.951 53.0273ZM136.491 38.4741C135.74 38.4741 135.034 38.6093 134.374 38.8796C133.743 39.1199 133.172 39.4954 132.662 40.006C132.181 40.4866 131.79 41.0874 131.49 41.8083C131.22 42.5292 131.085 43.3702 131.085 44.3314C131.085 45.4128 131.235 46.389 131.535 47.2601C131.835 48.1011 132.241 48.822 132.752 49.4228C133.292 49.9935 133.923 50.444 134.644 50.7745C135.365 51.0748 136.131 51.225 136.942 51.225C137.693 51.225 138.399 51.1199 139.059 50.9096C139.72 50.6994 140.291 50.3689 140.772 49.9184C141.282 49.4678 141.673 48.8821 141.943 48.1612C142.243 47.4403 142.394 46.5692 142.394 45.5479C142.394 44.6168 142.258 43.7307 141.988 42.8896C141.748 42.0486 141.372 41.2976 140.862 40.6368C140.381 39.976 139.765 39.4503 139.014 39.0598C138.294 38.6694 137.452 38.4741 136.491 38.4741Z" fill="white"></path><path d="M202.296 33.618C202.026 34.0986 201.605 34.6092 201.035 35.1499C200.464 35.6605 199.953 36.021 199.503 36.2312C199.052 36.021 198.541 35.6605 197.971 35.1499C197.4 34.6092 196.964 34.0986 196.664 33.618C196.964 33.1073 197.4 32.5817 197.971 32.041C198.541 31.5003 199.052 31.1098 199.503 30.8695C199.953 31.1098 200.464 31.5003 201.035 32.041C201.635 32.5817 202.056 33.1073 202.296 33.618ZM197.61 41.4577C198.121 41.1874 198.677 40.9921 199.277 40.872C199.908 40.7518 200.539 40.6918 201.17 40.6918V63.8506C200.749 64.0909 200.193 64.2561 199.503 64.3463C198.842 64.4664 198.211 64.5265 197.61 64.5265V41.4577Z" fill="white"></path><path d="M208.119 30.1937C208.63 29.9234 209.186 29.7281 209.786 29.608C210.417 29.4878 211.048 29.4277 211.679 29.4277V44.8369C212.099 44.2963 212.595 43.7556 213.166 43.2149C213.766 42.6742 214.442 42.1936 215.193 41.7731C215.944 41.3226 216.77 40.9621 217.671 40.6918C218.602 40.3914 219.594 40.2412 220.645 40.2412C222.147 40.2412 223.484 40.5115 224.655 41.0522C225.856 41.5929 226.878 42.3438 227.719 43.305C228.56 44.2662 229.191 45.4077 229.611 46.7293C230.062 48.0209 230.287 49.4176 230.287 50.9195C230.287 52.872 229.957 54.7042 229.296 56.4164C228.635 58.0985 227.704 59.5703 226.502 60.8319C225.331 62.0934 223.904 63.0997 222.222 63.8506C220.57 64.5715 218.738 64.932 216.725 64.932C214.683 64.932 212.955 64.7067 211.544 64.2561C210.132 63.8056 208.99 63.2799 208.119 62.6792V30.1937ZM218.978 42.7644C217.386 42.7644 215.944 43.245 214.652 44.2062C213.361 45.1373 212.37 46.2938 211.679 47.6755V60.922C212.4 61.4927 213.316 61.9583 214.427 62.3187C215.569 62.6792 216.845 62.8594 218.257 62.8594C219.398 62.8594 220.465 62.6491 221.456 62.2286C222.477 61.7781 223.363 61.1322 224.114 60.2912C224.865 59.4502 225.451 58.3988 225.871 57.1373C226.322 55.8757 226.547 54.4189 226.547 52.7668C226.547 49.5829 225.871 47.1198 224.52 45.3776C223.168 43.6354 221.321 42.7644 218.978 42.7644Z" fill="white"></path><path d="M237.418 52.5866C237.508 54.2086 237.793 55.6354 238.274 56.8669C238.785 58.0684 239.43 59.0747 240.211 59.8857C240.992 60.6967 241.894 61.3125 242.915 61.733C243.966 62.1235 245.077 62.3187 246.249 62.3187C247.721 62.3187 248.982 62.1235 250.034 61.733C251.115 61.3425 252.091 60.7267 252.962 59.8857C253.383 59.9758 253.668 60.2612 253.818 60.7418C253.608 61.0722 253.263 61.4777 252.782 61.9583C252.332 62.4389 251.716 62.9045 250.935 63.355C250.184 63.8056 249.268 64.181 248.186 64.4814C247.135 64.8118 245.904 64.977 244.492 64.977C242.99 64.977 241.593 64.7067 240.302 64.166C239.01 63.6254 237.884 62.8444 236.922 61.8231C235.961 60.8018 235.195 59.5403 234.624 58.0384C234.084 56.5365 233.813 54.8394 233.813 52.947C233.813 51.2049 234.114 49.5678 234.715 48.0359C235.315 46.474 236.126 45.1223 237.148 43.9809C238.199 42.8394 239.415 41.9383 240.797 41.2775C242.209 40.5866 243.711 40.2412 245.303 40.2412C247.015 40.2412 248.427 40.5266 249.538 41.0973C250.649 41.668 251.521 42.4039 252.151 43.305C252.812 44.2062 253.263 45.1974 253.503 46.2787C253.773 47.3601 253.908 48.4114 253.908 49.4327C253.668 49.7931 253.338 50.1085 252.917 50.3788C252.527 50.6492 252.091 50.8594 251.611 51.0096L237.418 52.5866ZM244.131 42.2687C243.2 42.2687 242.329 42.4339 241.518 42.7644C240.707 43.0948 240.001 43.6054 239.4 44.2963C238.8 44.9871 238.304 45.8732 237.914 46.9546C237.553 48.0359 237.358 49.3426 237.328 50.8745L250.034 49.5678C250.064 49.4176 250.079 49.2675 250.079 49.1173C250.079 48.9671 250.079 48.8319 250.079 48.7118C250.079 47.7806 249.959 46.9245 249.718 46.1436C249.478 45.3626 249.103 44.6868 248.592 44.116C248.111 43.5453 247.495 43.0948 246.745 42.7644C246.024 42.4339 245.153 42.2687 244.131 42.2687Z" fill="white"></path><path d="M257.077 59.4351C257.318 59.0146 257.708 58.6241 258.249 58.2637C258.819 57.9032 259.42 57.693 260.051 57.6329C260.261 59.1648 260.997 60.4414 262.259 61.4627C263.55 62.4539 265.187 62.9495 267.17 62.9495C269.062 62.9495 270.459 62.544 271.36 61.733C272.291 60.8919 272.757 59.8557 272.757 58.6241C272.757 57.3926 272.321 56.4314 271.45 55.7405C270.609 55.0497 269.152 54.4489 267.08 53.9383L264.421 53.2624C263.46 53.0221 262.589 52.7518 261.808 52.4514C261.057 52.1511 260.396 51.7906 259.826 51.3701C259.285 50.9195 258.865 50.3939 258.564 49.7931C258.264 49.1924 258.114 48.4565 258.114 47.5854C258.114 46.6542 258.354 45.7531 258.835 44.882C259.315 43.9809 259.976 43.1849 260.817 42.494C261.688 41.8032 262.679 41.2625 263.791 40.872C264.932 40.4515 266.164 40.2412 267.485 40.2412C268.837 40.2412 269.978 40.4064 270.91 40.7368C271.841 41.0372 272.607 41.4277 273.207 41.9083C273.838 42.3589 274.289 42.8545 274.559 43.3951C274.859 43.9358 275.025 44.4164 275.055 44.8369C274.844 45.2575 274.484 45.6329 273.973 45.9633C273.463 46.2637 272.907 46.4439 272.306 46.504C272.096 45.3626 271.51 44.3714 270.549 43.5303C269.588 42.6893 268.146 42.2687 266.224 42.2687C265.593 42.2687 264.962 42.3589 264.331 42.5391C263.731 42.6893 263.19 42.9296 262.709 43.26C262.229 43.5904 261.838 43.9959 261.538 44.4765C261.238 44.9271 261.087 45.4677 261.087 46.0985C261.087 47.1198 261.448 47.9458 262.169 48.5766C262.89 49.1773 264.151 49.688 265.953 50.1085L268.702 50.7844C271.315 51.4452 273.177 52.2862 274.289 53.3075C275.43 54.2987 276.001 55.5753 276.001 57.1373C276.001 58.1285 275.776 59.1047 275.325 60.0659C274.875 60.9971 274.214 61.8381 273.343 62.5891C272.472 63.31 271.405 63.8807 270.144 64.3012C268.882 64.7518 267.44 64.977 265.818 64.977C264.406 64.977 263.175 64.7968 262.124 64.4364C261.072 64.106 260.171 63.6704 259.42 63.1297C258.699 62.5891 258.144 62.0033 257.753 61.3725C257.363 60.7117 257.137 60.0659 257.077 59.4351Z" fill="white"></path><path fill-rule="evenodd" clip-rule="evenodd" d="M129.082 19.0037C129.196 18.3901 129.786 17.9851 130.399 18.0992C147.816 21.3373 159.288 26.8961 166.65 33.5105C174.031 40.1422 177.21 47.7712 178.146 54.9827C179.079 62.1678 177.783 68.908 176.273 73.8266C175.516 76.2908 174.701 78.3115 174.074 79.7199C173.76 80.4244 173.493 80.9766 173.302 81.3556C173.207 81.5451 173.131 81.6914 173.077 81.7917C173.051 81.8419 173.03 81.8807 173.015 81.9076L172.998 81.9391L172.993 81.9482L172.992 81.951C172.992 81.951 172.991 81.9528 172.002 81.4052C171.162 82.1611 171.161 82.1597 171.161 82.1597L171.16 82.1581L171.156 82.1539L171.145 82.142C171.137 82.1326 171.126 82.1201 171.113 82.1045C171.086 82.0734 171.05 82.0299 171.004 81.9742C170.913 81.8627 170.787 81.7019 170.634 81.4915C170.327 81.0709 169.911 80.4519 169.451 79.6328C168.533 77.9942 167.441 75.5556 166.705 72.3063C165.228 65.7915 165.196 56.1034 170.703 43.1779C170.835 42.867 171.091 42.6462 171.388 42.5478C169.803 40.0158 167.754 37.5413 165.139 35.1918C158.18 28.9396 147.14 23.5104 129.986 20.3212C129.373 20.2072 128.968 19.6173 129.082 19.0037ZM172.561 44.5885C167.45 56.8449 167.564 65.8758 168.909 71.8066C169.592 74.8222 170.599 77.058 171.423 78.5275C171.563 78.777 171.697 79.0044 171.824 79.2098C171.884 79.0802 171.946 78.9436 172.009 78.8C172.607 77.4599 173.387 75.5254 174.112 73.1632C175.566 68.4287 176.782 62.0304 175.905 55.2736C175.448 51.757 174.425 48.135 172.561 44.5885ZM172.002 81.4052L171.162 82.1611C171.407 82.4327 171.767 82.5693 172.13 82.528C172.493 82.4866 172.814 82.2723 172.991 81.9528L172.002 81.4052Z" fill="#C497A2"></path><path fill-rule="evenodd" clip-rule="evenodd" d="M214.355 19.1319C214.398 19.7545 213.929 20.2943 213.306 20.3376C196.659 21.4945 184.879 26.6211 178.076 35.0469C177.684 35.5325 176.972 35.6083 176.486 35.2163C176.001 34.8242 175.925 34.1127 176.317 33.6271C183.667 24.5241 196.167 19.2632 213.15 18.0829C213.772 18.0397 214.312 18.5093 214.355 19.1319Z" fill="#C497A2"></path><path fill-rule="evenodd" clip-rule="evenodd" d="M168.307 3.42073C163.715 5.32248 161.535 10.586 163.437 15.1771C165.339 19.7683 170.602 21.9485 175.193 20.0467C179.785 18.145 181.965 12.8814 180.063 8.29029C178.161 3.69916 172.898 1.51898 168.307 3.42073ZM161.349 16.0421C158.969 10.2977 161.697 3.71206 167.442 1.33261C173.186 -1.04684 179.772 1.68097 182.151 7.42535C184.531 13.1697 181.803 19.7554 176.058 22.1348C170.314 24.5143 163.728 21.7865 161.349 16.0421Z" fill="#C497A2"></path></svg>